<svg style="overflow: visible;" viewBox="-0.5 -0.5 17.541 9.0692" xmlns="http://www.w3.org/2000/svg">
<g id="field" transform="scale(1 -1) translate(0 -8.0692)"><defs><circle id="fuel" cx="0" cy="0" r="0.07505699999999998" fill="#B1902F"></circle><pattern id="neutralFuelGrid" x="0.04090000000000127" y="0.09760000000000102" width="0.15239999999999998" height="0.15239999999999998" patternContentUnits="userSpaceOnUse" patternUnits="userSpaceOnUse"><use x="0.07619999999999999" y="0.07619999999999999" href="#fuel"></use></pattern><pattern id="depotFuelGrid" x="0" y="0.021431000000001088" width="0.15239999999999998" height="0.15239999999999998" patternContentUnits="userSpaceOnUse" patternUnits="userSpaceOnUse"><use x="0.07619999999999999" y="0.07619999999999999" href="#fuel"></use></pattern><pattern id="chuteFuelGrid" x="0" y="0.1326" width="0.15239999999999998" height="0.15239999999999998" patternContentUnits="userSpaceOnUse" patternUnits="userSpaceOnUse"><use x="0.07619999999999999" y="0.07619999999999999" href="#fuel"></use></pattern><g id="blueRampTrench"><rect height="0.3055620000000001" width="1.193852" x="-4.2426200000000005" y="2.450338" fill="hsl(from currentColor h s calc(l*0.8))"></rect><rect x="-4.208718" y="0.5940749999999999" width="0.563024" height="1.856263" fill="currentColor"></rect><rect x="-3.645694" y="0.5940749999999999" width="0.563024" height="1.856263" fill="currentColor"></rect><line x1="-3.645694" y1="0.5940749999999999" x2="-3.645694" y2="2.450338" stroke="black" stroke-width="0.01"></line><line x1="-3.645694" y1="2.7559" x2="-3.645694" y2="4.0346" stroke="hsl(from currentColor h s calc(l*0.8))" stroke-width="0.1524"></line></g><g id="blueSide"><rect id="neutralFuel" x="7.3561000000000005" y="4.0600000000000005" width="1.8287999999999998" height="2.2859999999999996" fill="url(#neutralFuelGrid)"></rect><line x1="4.003326" x2="3.977926" y1="0" y2="8.0692" stroke="currentColor" stroke-width="0.0508"></line><g> <rect x="0" y="5.431631" width="0.609" height="0.0762" fill="currentColor"></rect><rect x="0" y="6.422231" width="0.609" height="0.0762" fill="currentColor"></rect><rect x="0.609" y="5.431631" width="0.0762" height="1.0668" fill="currentColor"></rect><rect id="neutralFuel" x="0" y="5.507831" width="0.6095999999999999" height="0.9143999999999999" fill="url(#depotFuelGrid)"></rect></g><g transform="translate(8.2705 4.0346)"><use href="#blueRampTrench"></use><g transform="scale(1 -1)"><use href="#blueRampTrench"></use></g><rect x="-4.24215" y="-0.5969" width="1.1945589999999995" height="1.1938" fill="hsl(from currentColor h s calc(l*0.8))"></rect><polygon points="-3.033074,0 -3.340112,-0.527908 -3.949688,-0.527908 -4.254476,0 -3.949688,0.527908 -3.340112,0.527908" stroke="gray" fill="transparent" stroke-width="0.0254"></polygon><circle r="0.2" stroke="gray" stroke-width="0.02" fill="transparent" cx="-3.645694" cy="0"></circle><circle r="0.1" stroke="gray" stroke-width="0.02" fill="transparent" cx="-3.645694" cy="0"></circle><rect x="-8.271493" y="-0.784225" width="1.1455549999999999" height="0.9905999999999999" fill="black"></rect><line x1="-7.208488" y1="-0.885825" x2="-7.208488" y2="0.307975" stroke="currentColor" stroke-width="0.042164"></line><rect x="-7.252938" y="0.12065000000000001" height="0.0381" width="0.0889" fill="currentColor"></rect><rect x="-7.252938" y="-0.7366" height="0.0381" width="0.0889" fill="currentColor"></rect></g><line x1="0" y1="0.259556" x2="-0.2" y2="0.259556" stroke="#eeeeee" stroke-width="0.0254"></line><line x1="0" y1="1.072356" x2="-0.2" y2="1.072356" stroke="#eeeeee" stroke-width="0.0254"></line><rect x="-0.15239999999999998" y="0.285" width="0.15239999999999998" height="0.7619999999999999" fill="url(#chuteFuelGrid)"></rect></g></defs><g id="tape"><line id="centerline" x1="8.2705" x2="8.2705" y1="0" y2="8.0692" stroke="#eeeeee" stroke-width="0.0508"></line><line id="midline" x1="0" x2="16.541" y1="4.0346" y2="4.0346" stroke="black" stroke-width="0.1016"></line></g><use x="0" y="0" width="16.541" height="8.0692" href="#blueSide" color="#1c1c99ff"></use><g id="redSide" transform="translate(16.541 8.0692) rotate(180)"><use x="0" y="0" width="16.541" height="8.0692" href="#blueSide" color="#9e2323ff"></use></g><rect id="wall" x="-0.0254" y="-0.0254" width="16.5918" height="8.120000000000001" stroke="#eeeeee" stroke-width="0.0508" fill="transparent"></rect></g>
</svg>